<?xml version="1.0" encoding="UTF-8" standalone="no"?> <svg xmlns="http://www.w3.org/2000/svg" viewBox="0 0 485.43 485.43"><defs><style>.cls-1{fill:#f7941d;}.cls-2{fill:#fff;}</style></defs><g id="Layer_2" data-name="Layer 2"><circle class="cls-1" cx="242.71" cy="242.71" r="242.71"/></g><g id="Layer_3" data-name="Layer 3"><path class="cls-2" d="M365.57,217.57c6.86-41.14-54.28-58.28-54.28-58.28l10.28-43.43-25.71-5.72-12.57,41.72-20.58-5.15L273,103.86l-25.71-7.43-11.43,45.71-54.29-14.28-7.43,28.57s14.43,3.86,25.15,6.86,5.57,20.14,5.57,20.14-23.79,95.14-27.43,109.71-16.5,9.86-16.5,9.86L145,299.29,131.29,329l54.28,14.29-11.43,43.42,27.43,8,10.86-44L233,355.86l-12.57,43.43L249,407.86l12-45.15c45.14,5.72,70.29,5.72,92.57-34.85S331.86,261,331.86,261,358.71,258.71,365.57,217.57ZM303,305.14c-8.14,33.43-64.29,16.72-81.86,12.43-1.31-.32,14.57-58.28,14.57-58.28S311.14,271.71,303,305.14Zm-5.74-69.21c-8,2.62-19.76,4-32.4,1.5-22.4-4.37-22.72-5.91-22.72-6L256,179.14s36.71,4.29,49.57,19.72a26.14,26.14,0,0,1,6.33,17.06A21.1,21.1,0,0,1,297.26,235.93Z" transform="translate(-13.29 -13.29)"/></g></svg>